<mxfile host="app.diagrams.net" agent="Mozilla/5.0 (X11; CrOS x86_64 14541.0.0) AppleWebKit/537.36 (KHTML, like Gecko) Chrome/132.0.0.0 Safari/537.36" version="26.0.14">
  <diagram name="Page-1" id="H39cGSUqL6vZUgALx9EX">
    <mxGraphModel dx="1290" dy="522" grid="1" gridSize="10" guides="1" tooltips="1" connect="1" arrows="1" fold="1" page="1" pageScale="1" pageWidth="850" pageHeight="1100" math="0" shadow="0">
      <root>
        <mxCell id="0" />
        <mxCell id="1" parent="0" />
        <mxCell id="Dc3C1nC6n-K9u7BvnvUE-5" value="" style="edgeStyle=orthogonalEdgeStyle;rounded=0;orthogonalLoop=1;jettySize=auto;html=1;" edge="1" parent="1" source="Dc3C1nC6n-K9u7BvnvUE-1" target="Dc3C1nC6n-K9u7BvnvUE-4">
          <mxGeometry relative="1" as="geometry" />
        </mxCell>
        <mxCell id="Dc3C1nC6n-K9u7BvnvUE-1" value="START" style="ellipse;whiteSpace=wrap;html=1;" vertex="1" parent="1">
          <mxGeometry x="200" y="80" width="120" height="40" as="geometry" />
        </mxCell>
        <mxCell id="Dc3C1nC6n-K9u7BvnvUE-3" value="STOP" style="ellipse;whiteSpace=wrap;html=1;" vertex="1" parent="1">
          <mxGeometry x="200" y="880" width="120" height="40" as="geometry" />
        </mxCell>
        <mxCell id="Dc3C1nC6n-K9u7BvnvUE-7" value="" style="edgeStyle=orthogonalEdgeStyle;rounded=0;orthogonalLoop=1;jettySize=auto;html=1;" edge="1" parent="1" source="Dc3C1nC6n-K9u7BvnvUE-4" target="Dc3C1nC6n-K9u7BvnvUE-6">
          <mxGeometry relative="1" as="geometry" />
        </mxCell>
        <mxCell id="Dc3C1nC6n-K9u7BvnvUE-4" value="hoursPerDay" style="whiteSpace=wrap;html=1;" vertex="1" parent="1">
          <mxGeometry x="200" y="160" width="120" height="60" as="geometry" />
        </mxCell>
        <mxCell id="Dc3C1nC6n-K9u7BvnvUE-9" value="" style="edgeStyle=orthogonalEdgeStyle;rounded=0;orthogonalLoop=1;jettySize=auto;html=1;" edge="1" parent="1" source="Dc3C1nC6n-K9u7BvnvUE-6" target="Dc3C1nC6n-K9u7BvnvUE-8">
          <mxGeometry relative="1" as="geometry" />
        </mxCell>
        <mxCell id="Dc3C1nC6n-K9u7BvnvUE-6" value="daysPerWeek" style="whiteSpace=wrap;html=1;" vertex="1" parent="1">
          <mxGeometry x="200" y="260" width="120" height="60" as="geometry" />
        </mxCell>
        <mxCell id="Dc3C1nC6n-K9u7BvnvUE-11" value="" style="edgeStyle=orthogonalEdgeStyle;rounded=0;orthogonalLoop=1;jettySize=auto;html=1;" edge="1" parent="1" source="Dc3C1nC6n-K9u7BvnvUE-8" target="Dc3C1nC6n-K9u7BvnvUE-10">
          <mxGeometry relative="1" as="geometry" />
        </mxCell>
        <mxCell id="Dc3C1nC6n-K9u7BvnvUE-8" value="daysPerYear" style="whiteSpace=wrap;html=1;" vertex="1" parent="1">
          <mxGeometry x="200" y="360" width="120" height="60" as="geometry" />
        </mxCell>
        <mxCell id="Dc3C1nC6n-K9u7BvnvUE-13" value="" style="edgeStyle=orthogonalEdgeStyle;rounded=0;orthogonalLoop=1;jettySize=auto;html=1;" edge="1" parent="1" source="Dc3C1nC6n-K9u7BvnvUE-10" target="Dc3C1nC6n-K9u7BvnvUE-12">
          <mxGeometry relative="1" as="geometry" />
        </mxCell>
        <mxCell id="Dc3C1nC6n-K9u7BvnvUE-10" value="INPUT&lt;div&gt;hoursPerDay&lt;/div&gt;" style="shape=parallelogram;perimeter=parallelogramPerimeter;whiteSpace=wrap;html=1;fixedSize=1;flipV=1;" vertex="1" parent="1">
          <mxGeometry x="200" y="460" width="120" height="60" as="geometry" />
        </mxCell>
        <mxCell id="Dc3C1nC6n-K9u7BvnvUE-12" value="how many days?" style="rhombus;whiteSpace=wrap;html=1;" vertex="1" parent="1">
          <mxGeometry x="200" y="560" width="120" height="80" as="geometry" />
        </mxCell>
        <mxCell id="Dc3C1nC6n-K9u7BvnvUE-14" value="&lt;div&gt;hoursPerDay * daysPerYear&lt;/div&gt;" style="whiteSpace=wrap;html=1;" vertex="1" parent="1">
          <mxGeometry x="80" y="680" width="120" height="60" as="geometry" />
        </mxCell>
        <mxCell id="Dc3C1nC6n-K9u7BvnvUE-16" value="&lt;div&gt;hoursPerDay * daysPerWeek&lt;/div&gt;" style="whiteSpace=wrap;html=1;" vertex="1" parent="1">
          <mxGeometry x="320" y="680" width="120" height="60" as="geometry" />
        </mxCell>
        <mxCell id="Dc3C1nC6n-K9u7BvnvUE-18" value="" style="endArrow=classic;html=1;rounded=0;entryX=0.5;entryY=0;entryDx=0;entryDy=0;exitX=0;exitY=0.5;exitDx=0;exitDy=0;" edge="1" parent="1" source="Dc3C1nC6n-K9u7BvnvUE-12" target="Dc3C1nC6n-K9u7BvnvUE-14">
          <mxGeometry width="50" height="50" relative="1" as="geometry">
            <mxPoint x="110" y="630" as="sourcePoint" />
            <mxPoint x="160" y="580" as="targetPoint" />
            <Array as="points">
              <mxPoint x="140" y="600" />
            </Array>
          </mxGeometry>
        </mxCell>
        <mxCell id="Dc3C1nC6n-K9u7BvnvUE-20" value="if days &amp;gt; 5" style="edgeLabel;html=1;align=center;verticalAlign=middle;resizable=0;points=[];" vertex="1" connectable="0" parent="Dc3C1nC6n-K9u7BvnvUE-18">
          <mxGeometry x="-0.3257" relative="1" as="geometry">
            <mxPoint as="offset" />
          </mxGeometry>
        </mxCell>
        <mxCell id="Dc3C1nC6n-K9u7BvnvUE-19" value="" style="endArrow=classic;html=1;rounded=0;exitX=1;exitY=0.5;exitDx=0;exitDy=0;" edge="1" parent="1" source="Dc3C1nC6n-K9u7BvnvUE-12">
          <mxGeometry width="50" height="50" relative="1" as="geometry">
            <mxPoint x="379.5" y="570" as="sourcePoint" />
            <mxPoint x="379.5" y="680" as="targetPoint" />
            <Array as="points">
              <mxPoint x="380" y="600" />
            </Array>
          </mxGeometry>
        </mxCell>
        <mxCell id="Dc3C1nC6n-K9u7BvnvUE-21" value="if days = 5" style="edgeLabel;html=1;align=center;verticalAlign=middle;resizable=0;points=[];" vertex="1" connectable="0" parent="Dc3C1nC6n-K9u7BvnvUE-19">
          <mxGeometry x="-0.2886" y="3" relative="1" as="geometry">
            <mxPoint as="offset" />
          </mxGeometry>
        </mxCell>
        <mxCell id="Dc3C1nC6n-K9u7BvnvUE-29" value="" style="edgeStyle=orthogonalEdgeStyle;rounded=0;orthogonalLoop=1;jettySize=auto;html=1;" edge="1" parent="1" target="Dc3C1nC6n-K9u7BvnvUE-3">
          <mxGeometry relative="1" as="geometry">
            <mxPoint x="260" y="840" as="sourcePoint" />
          </mxGeometry>
        </mxCell>
        <mxCell id="Dc3C1nC6n-K9u7BvnvUE-30" value="OUTPUT&lt;div&gt;daysPerWeek&lt;/div&gt;&lt;div&gt;daysPerYear&lt;/div&gt;" style="shape=parallelogram;perimeter=parallelogramPerimeter;whiteSpace=wrap;html=1;fixedSize=1;" vertex="1" parent="1">
          <mxGeometry x="200" y="780" width="120" height="60" as="geometry" />
        </mxCell>
        <mxCell id="Dc3C1nC6n-K9u7BvnvUE-37" value="" style="endArrow=classic;html=1;rounded=0;exitX=0.5;exitY=1;exitDx=0;exitDy=0;" edge="1" parent="1" source="Dc3C1nC6n-K9u7BvnvUE-16">
          <mxGeometry width="50" height="50" relative="1" as="geometry">
            <mxPoint x="380" y="809.5" as="sourcePoint" />
            <mxPoint x="310.0038461538462" y="809.7684615384615" as="targetPoint" />
            <Array as="points">
              <mxPoint x="380" y="810" />
            </Array>
          </mxGeometry>
        </mxCell>
        <mxCell id="Dc3C1nC6n-K9u7BvnvUE-38" value="" style="endArrow=classic;html=1;rounded=0;exitX=0.5;exitY=1;exitDx=0;exitDy=0;" edge="1" parent="1" source="Dc3C1nC6n-K9u7BvnvUE-14">
          <mxGeometry width="50" height="50" relative="1" as="geometry">
            <mxPoint x="130" y="809.5" as="sourcePoint" />
            <mxPoint x="210" y="810" as="targetPoint" />
            <Array as="points">
              <mxPoint x="140" y="810" />
            </Array>
          </mxGeometry>
        </mxCell>
      </root>
    </mxGraphModel>
  </diagram>
</mxfile>
